Coordinates
version=1
nRows=26
nColumns=24
inDegrees=yes

Units are S.I. units (second, meters, Newtons, ...)
Angles are in degrees.

endheader
time	pelvis_tilt	pelvis_list	pelvis_rotation	pelvis_tx	pelvis_ty	pelvis_tz	hip_flexion_r	hip_adduction_r	hip_rotation_r	knee_angle_r	ankle_angle_r	subtalar_angle_r	mtp_angle_r	hip_flexion_l	hip_adduction_l	hip_rotation_l	knee_angle_l	ankle_angle_l	subtalar_angle_l	mtp_angle_l	lumbar_extension	lumbar_bending	lumbar_rotation
      0.65000000	     -0.62705316	      5.58640094	     -0.51233959	     -0.75341999	      1.04763823	      0.32400783	     24.29072973	     -1.89237598	    -13.05350967	      0.64370906	     10.60367921	      0.31754364	     -0.15470366	    -18.27542968	      9.08733711	     -5.37396352	     -4.01732904	      7.28205124	      8.80243701	      0.32265900	      7.55619345	     -2.98646441	     -2.70259061
      0.65416667	     -0.26721508	      5.46589908	     -0.40003517	     -0.74768173	      1.04803524	      0.32397441	     23.81587420	     -1.81393646	    -13.30129017	      0.26272346	     10.76661438	      0.70135110	     -0.34582545	    -18.82557083	      8.90020762	     -5.17515798	     -4.29647241	      6.81151530	      8.60030550	      0.34720451	      7.10061140	     -2.97503908	     -3.23415393
      0.65833333	     -0.31221276	      5.40043704	     -0.35525321	     -0.74167845	      1.04779481	      0.32415657	     23.77182091	     -1.72929245	    -13.20593678	     -0.11455824	     10.75140718	      0.70199943	     -0.34945944	    -18.93155755	      8.78730045	     -5.11782464	     -4.64977247	      6.76463997	      8.59717507	      0.34833174	      7.13881005	     -2.94976213	     -3.23882437
      0.66250000	     -0.29409466	      5.36499666	     -0.24164116	     -0.73578898	      1.04770088	      0.32420394	     23.63819671	     -1.71401279	    -13.07874712	     -0.49208987	     10.78371263	      0.65044586	     -0.36086098	    -19.06294139	      8.68508087	     -5.12593699	     -5.05604266	      6.62090578	      8.58244659	      0.35181364	      7.25778963	     -2.82660700	     -3.26631014
      0.66666667	     -0.13305307	      5.19697042	     -0.28032690	     -0.72962037	      1.04775307	      0.32460836	     23.27220172	     -1.47324800	    -12.49537008	     -0.72137520	     10.76092793	     -0.14892349	     -0.52533921	    -19.38743374	      8.46803822	     -5.33634426	     -5.36308687	      6.00105243	      8.55267840	      0.44788437	      7.08062681	     -2.62466554	     -3.54546349
      0.67083333	     -0.13658169	      5.13333292	     -0.18819290	     -0.72358708	      1.04766273	      0.32474437	     23.13645214	     -1.41360130	    -12.37284532	     -1.07015256	     10.72334757	     -0.18205186	     -0.53628582	    -19.49489597	      8.33768627	     -5.29996757	     -5.78437501	      5.91810600	      8.54805964	      0.45672648	      7.19288044	     -2.54640506	     -3.55333037
      0.67500000	     -0.02618378	      4.95571294	     -0.17261908	     -0.71732124	      1.04772072	      0.32514162	     22.79032991	     -1.17825546	    -11.86868987	     -1.24551118	     10.38863614	     -1.01905659	     -0.69519307	    -19.73540922	      8.08313764	     -5.52829429	     -6.16422658	      5.40000268	      8.62611790	      0.61493421	      7.08333155	     -2.30209299	     -3.74266373
      0.67916667	     -0.02628232	      4.88539812	     -0.07471912	     -0.71122950	      1.04767633	      0.32530918	     22.61932931	     -1.11189608	    -11.72627049	     -1.54445099	     10.32279523	     -1.02582464	     -0.70508380	    -19.82538468	      7.93681311	     -5.49729213	     -6.62178852	      5.30458808	      8.61870291	      0.62762696	      7.20958303	     -2.24081048	     -3.74539058
      0.68333333	     -0.01858959	      4.64715952	      0.01785247	     -0.70461392	      1.04770124	      0.32555500	     22.33643532	     -0.85168171	    -11.53020215	     -1.66685339	      9.95409623	     -1.27560267	     -0.75074546	    -19.96218519	      7.59887205	     -5.62206700	     -7.01797450	      4.79968988	      8.64683803	      0.68583139	      7.34857418	     -1.97837017	     -3.82864885
      0.68750000	      0.04935725	      4.49446769	      0.08638127	     -0.69835561	      1.04780689	      0.32587793	     22.02803655	     -0.67217147	    -11.26382876	     -1.81995887	      9.45951939	     -1.68108925	     -0.80890918	    -20.09855856	      7.35236010	     -5.81865294	     -7.50386164	      4.31366679	      8.68432137	      0.78188686	      7.31727008	     -1.77135548	     -3.94316657
      0.69166667	      0.10386118	      4.32735943	      0.16258800	     -0.69202920	      1.04792014	      0.32619354	     21.71270648	     -0.48025785	    -10.99671127	     -1.94295270	      9.02191831	     -2.04751478	     -0.85975820	    -20.22040643	      7.08592058	     -5.94679324	     -7.99471403	      3.94159356	      8.73877919	      0.88936364	      7.37450739	     -1.60678228	     -4.03209573
      0.69583333	      0.13506916	      4.16551410	      0.24090216	     -0.68571821	      1.04803984	      0.32652136	     21.42827362	     -0.29580417	    -10.80066490	     -2.06297197	      8.51197477	     -2.37434553	     -0.90406514	    -20.28832929	      6.82106802	     -6.11977887	     -8.53313607	      3.52162523	      8.78778524	      0.99863651	      7.38197177	     -1.40730389	     -4.12245227
      0.70000000	      0.18332276	      3.99028369	      0.32603195	     -0.67935769	      1.04821171	      0.32684732	     21.11119016	     -0.10103700	    -10.62358223	     -2.15705885	      7.96633308	     -2.66688320	     -0.94279216	    -20.36301537	      6.53393955	     -6.28645094	     -9.09197512	      3.07434132	      8.84817664	      1.11340052	      7.44492514	     -1.23191311	     -4.20327535
      0.70416667	      0.43058362	      3.81585775	      0.31871360	     -0.67327891	      1.04862353	      0.32742848	     20.57000352	      0.14267204	    -10.04651741	     -2.17419237	      7.17804365	     -3.78263993	     -1.06498674	    -20.61786632	      6.25508877	     -6.56502995	     -9.67458100	      2.60127305	      9.13688441	      1.64578390	      7.17801910	     -0.99523763	     -4.44350551
      0.70833333	      0.41000416	      3.61287701	      0.40685898	     -0.66676324	      1.04875223	      0.32769614	     20.33666085	      0.35305911	    -10.11763439	     -2.29712511	      6.63032248	     -3.81176212	     -1.09662682	    -20.58733529	      5.93651039	     -6.78978499	    -10.29523921	      2.11462879	      9.14428051	      1.79285165	      7.40689012	     -0.76289961	     -4.46509141
      0.71250000	      0.40987357	      3.42489356	      0.50586088	     -0.66033116	      1.04894237	      0.32798003	     20.07628169	      0.54553822	    -10.11181874	     -2.39731026	      5.99204674	     -3.91094720	     -1.12643867	    -20.55037564	      5.62325623	     -6.96770721	    -10.95029560	      1.53201837	      9.18407505	      1.95968271	      7.51146311	     -0.53017906	     -4.51751081
      0.71666667	      0.43785105	      3.22291143	      0.59867216	     -0.65391393	      1.04918627	      0.32827821	     19.78983624	      0.75233399	    -10.11957814	     -2.50172908	      5.34094454	     -4.07147265	     -1.15373580	    -20.52088605	      5.28918052	     -7.18023561	    -11.63967482	      0.91985897	      9.21634862	      2.14956069	      7.58837477	     -0.29232733	     -4.58678047
      0.72083333	      0.41667906	      3.00323500	      0.73476533	     -0.64741884	      1.04941549	      0.32857485	     19.53578258	      0.97003333	    -10.10053510	     -2.58526917	      4.83377148	     -4.15591248	     -1.17006369	    -20.41442598	      4.91144879	     -7.35196133	    -12.38770407	      0.42468650	      9.20986701	      2.28830550	      7.59934954	     -0.11011592	     -4.63649699
      0.72500000	      0.50821143	      2.80435707	      0.78072000	     -0.64108699	      1.04976389	      0.32888611	     19.21863697	      1.17465066	    -10.18221832	     -2.74926455	      4.05524848	     -4.37603104	     -1.19343491	    -20.40877368	      4.59034027	     -7.60057141	    -13.12732564	     -0.34716210	      9.28313153	      2.52636548	      7.71505470	      0.20693416	     -4.73318733
      0.72916667	      0.60361817	      2.58167950	      0.88299767	     -0.63474414	      1.05017860	      0.32921492	     18.84714122	      1.40031109	    -10.02208781	     -2.82244600	      3.33658641	     -4.72058503	     -1.22078385	    -20.37878132	      4.20804123	     -7.76000704	    -13.92306699	     -1.07116212	      9.35733611	      3.06673753	      7.67726816	      0.48481973	     -4.86785596
      0.73333333	      0.57172944	      2.36546620	      0.98210129	     -0.62836076	      1.05041457	      0.32960154	     18.66569010	      1.61531220	    -10.16713104	     -3.03257679	      3.02063967	     -4.74895845	     -1.22749024	    -20.16887000	      3.82252526	     -8.04984025	    -14.83268734	     -1.48329390	      9.29836243	      3.18568061	      7.68317725	      0.61703567	     -4.88419605
      0.73750000	      0.63412383	      2.13625829	      1.02577896	     -0.62197420	      1.05078010	      0.32989972	     18.40418933	      1.83746164	    -10.39221977	     -3.25763588	      2.29337845	     -4.81357368	     -1.24034860	    -20.06152385	      3.45335895	     -8.30754211	    -15.68670704	     -2.41189122	      9.36757244	      3.42388350	      7.86372339	      0.98718948	     -4.94583274
      0.74166667	      0.67666675	      1.90061210	      1.11003268	     -0.61563637	      1.05114906	      0.33024269	     18.15034317	      2.06145315	    -10.53656009	     -3.46675823	      1.72993590	     -4.87923141	     -1.24863112	    -19.89381853	      3.04706009	     -8.52492041	    -16.62106508	     -3.19998640	      9.34942209	      3.70704117	      7.91099928	      1.26784292	     -5.00264247
      0.74583333	      0.73618942	      1.66479215	      1.20255849	     -0.60936042	      1.05156400	      0.33054366	     17.87173628	      2.27880918	    -10.58269633	     -3.65795196	      1.16689835	     -4.93115047	     -1.25357735	    -19.71911779	      2.63761258	     -8.65925109	    -17.58576903	     -4.03585803	      9.29352694	      4.20462395	      7.95019889	      1.55258240	     -5.06785471
      0.75000000	      0.76669980	      1.42874459	      1.22184899	     -0.60314076	      1.05189792	      0.33099021	     17.68853423	      2.51120110	    -10.85972137	     -3.98399792	      0.79558594	     -4.95794438	     -1.25681030	    -19.47731724	      2.23643422	     -8.97598619	    -18.62715980	     -4.71930650	      9.26307587	      4.45759748	      7.97711543	      1.82127233	     -5.10376158
      0.75416667	      0.79724403	      1.17860429	      1.29042512	     -0.59690788	      1.05227374	      0.33136089	     17.47416516	      2.74164677	    -11.03948625	     -4.24835919	      0.34797600	     -4.90784844	     -1.25878657	    -19.21147543	      1.80183584	     -9.16764385	    -19.69117407	     -5.57211887	      9.23336294	      4.73076004	      8.03933473	      2.13481809	     -5.13538639
